<?xml version="1.0"?>
<svg xmlns:xlink="http://www.w3.org/1999/xlink" xmlns="http://www.w3.org/2000/svg" version="1.1" viewBox="0.0 0.0 576.0 576.0" fill="none" stroke="none" stroke-linecap="square" stroke-miterlimit="10">
  <style>
    path {
      fill: #191970;
    }
    @media (prefers-color-scheme: dark) {
      path {
        fill: #FFF;
      }
    }
  </style>
  <clipPath id="p.0">
    <path d="m0 0l576.0 0l0 576.0l-576.0 0l0 -576.0z" clip-rule="nonzero"/>
  </clipPath>
  <g clip-path="url(#p.0)">
    <path fill="#000000" fill-opacity="0.0" d="m0 0l576.0 0l0 576.0l-576.0 0z" fill-rule="evenodd"/>
    <path fill="#000000" fill-opacity="0.0" d="m0 0l576.0 0l0 576.0l-576.0 0z" fill-rule="evenodd"/>
    <path fill="#191970" d="m316.07535 363.32812l-62.75 0q-1.5625 17.1875 -6.78125 30.46875q-5.203125 13.28125 -13.796875 22.140625q-8.84375 9.109375 -21.34375 13.796875q-12.5 4.6875 -28.65625 4.6875q-13.53125 0 -24.078125 -3.765625q-10.546875 -3.78125 -18.625 -11.078125q-7.8125 -6.765625 -13.421875 -16.140625q-5.59375 -9.375 -9.234375 -20.828125q-4.6875 -13.8125 -6.90625 -30.46875q-2.203125 -16.671875 -2.203125 -35.6875l0 -52.34375q0 -15.359375 1.6875 -30.0625q1.6875 -14.71875 5.078125 -27.734375q4.421875 -14.84375 11.328125 -26.953125q6.90625 -12.109375 17.3125 -19.671875q7.5625 -6.25 17.328125 -9.625q9.765625 -3.390625 22.0 -3.390625q17.453125 0 29.953125 5.078125q12.5 5.078125 21.09375 14.71875q8.328125 9.625 13.140625 23.296875q4.828125 13.671875 6.390625 30.59375l62.484375 0q-2.859375 -28.375 -12.625 -51.546875q-9.765625 -23.1875 -26.6875 -39.59375q-16.671875 -16.140625 -40.234375 -24.984375q-23.5625 -8.859375 -53.515625 -8.859375q-22.140625 0 -40.765625 5.984375q-18.609375 5.984375 -33.96875 16.671875q-16.15625 11.71875 -28.53125 28.25q-12.359375 16.53125 -20.171875 36.84375q-7.296875 18.234375 -10.9375 38.8125q-3.640625 20.5625 -3.640625 42.703125l0 51.8125q0 23.1875 3.765625 44.546875q3.78125 21.34375 11.328125 39.578125q7.5625 18.484375 18.625 33.984375q11.0625 15.484375 25.90625 26.421875q15.375 11.71875 35.03125 18.109375q19.65625 6.375 43.09375 6.375q28.65625 0 52.21875 -8.71875q23.5625 -8.734375 40.75 -24.875q16.921875 -15.890625 27.34375 -38.40625q10.421875 -22.53125 13.015625 -50.140625z" fill-rule="nonzero"/>
    <path fill="#191970" d="m529.18677 280.0l0 -33.5l-117.703094 0l56.25 -60.078125q11.109375 -11.796875 20.5625 -22.90625q9.46875 -11.109375 16.40625 -22.046875q6.78125 -10.9375 10.6874695 -22.140625q3.90625 -11.203125 3.90625 -23.171875q0 -15.984375 -5.21875 -29.265625q-5.2030945 -13.28125 -15.0937195 -22.828125q-10.078125 -9.546875 -24.75 -14.921875q-14.671875 -5.390625 -33.234375 -5.390625q-19.796875 0 -35.859375 6.4375q-16.0625 6.421875 -27.171875 17.359375q-11.28125 10.9375 -17.359375 25.609375q-6.078125 14.65625 -6.078125 31.15625l41.671875 0q0 -10.9375 2.78125 -19.53125q2.78125 -8.59375 8.328125 -14.671875q5.390625 -5.734375 13.546875 -8.859375q8.15625 -3.125 19.265625 -3.125q8.6875 0 15.71875 2.953125q7.03125 2.953125 12.0625 8.15625q5.03125 5.21875 7.625 12.515625q2.609375 7.28125 2.609375 16.140625q0 6.59375 -1.828125 13.109375q-1.8125 6.5 -5.984375 13.96875q-4.328125 7.46875 -11.28125 16.40625q-6.9375 8.9375 -17.1875 20.21875l-82.28125 89.59375l0 28.8125l169.60934 0z" fill-rule="nonzero"/>
  </g>
</svg>
